<svg id="Capa_1" enable-background="new 0 0 512 512" height="512" viewBox="0 0 512 512" width="512" xmlns="http://www.w3.org/2000/svg"><g><path d="m372.036 330.159c-11.513-7.383-18.203-20.535-17.46-34.324.153-2.831.185-5.711.095-8.559-.793-25.202-11.174-48.941-29.229-66.847-18.054-17.902-41.879-28.086-67.086-28.675-26.845-.642-52.165 9.342-71.336 28.071-19.178 18.735-29.74 43.815-29.74 70.622 0 1.818.05 3.659.15 5.471.752 13.729-5.94 26.85-17.464 34.24-29.81 19.116-47.183 52.98-45.339 88.378 1.271 24.406 11.603 47.405 29.092 64.76 17.485 17.352 40.562 27.509 64.979 28.603 1.484.066 2.966.1 4.448.1 15.825 0 31.438-3.778 45.409-11.021 10.925-5.665 23.969-5.664 34.894-.001 15.28 7.923 32.523 11.705 49.858 10.923 24.417-1.094 47.493-11.251 64.979-28.603 17.489-17.354 27.821-40.354 29.092-64.76 1.84-35.397-15.533-69.262-45.342-88.378z" fill="#8f5041"/><path d="m109.612 139.956c-10.237-17.647-20.325-32.284-20.75-32.899-2.8-4.055-7.414-6.475-12.342-6.475s-9.541 2.42-12.342 6.475c-.424.614-10.512 15.251-20.75 32.899-19.846 34.212-22.142 48.398-22.142 56.093 0 30.455 24.778 55.232 55.233 55.232s55.233-24.777 55.233-55.232c.002-7.695-2.293-21.881-22.14-56.093z" fill="#8f5041"/><path d="m468.571 139.956c-10.238-17.648-20.326-32.285-20.75-32.899-2.801-4.055-7.414-6.475-12.342-6.475s-9.542 2.42-12.342 6.475c-.424.615-10.512 15.252-20.75 32.899-19.846 34.212-22.142 48.398-22.142 56.093 0 30.455 24.777 55.232 55.233 55.232s55.233-24.777 55.233-55.232c.002-7.695-2.294-21.881-22.14-56.093z" fill="#773941"/><path d="m219.468 39.374c-10.237-17.647-20.325-32.284-20.75-32.899-2.799-4.055-7.413-6.475-12.341-6.475s-9.542 2.42-12.342 6.475c-.425.615-10.512 15.252-20.75 32.899-19.846 34.212-22.142 48.397-22.142 56.092 0 30.456 24.777 55.233 55.233 55.233s55.233-24.777 55.233-55.233c.001-7.695-2.294-21.88-22.141-56.092z" fill="#8f5041"/><g fill="#773941"><path d="m358.714 39.374c-10.237-17.647-20.324-32.284-20.749-32.899-2.8-4.055-7.414-6.475-12.342-6.475s-9.542 2.42-12.342 6.475c-.425.615-10.512 15.252-20.75 32.899-19.846 34.212-22.142 48.397-22.142 56.092 0 30.456 24.777 55.233 55.233 55.233s55.233-24.777 55.233-55.233c.001-7.695-2.294-21.88-22.141-56.092z"/><path d="m372.036 330.159c-11.513-7.383-18.203-20.535-17.46-34.324.153-2.831.185-5.711.095-8.559-.793-25.202-11.174-48.941-29.229-66.847-18.054-17.902-41.879-28.086-67.086-28.675-.627-.015-1.253-.018-1.878-.022v305.01c5.833.073 11.652 1.477 16.97 4.233 15.28 7.923 32.523 11.705 49.858 10.923 24.417-1.094 47.493-11.251 64.979-28.603 17.489-17.354 27.821-40.354 29.092-64.76 1.841-35.395-15.532-69.26-45.341-88.376z"/></g></g></svg>